<svg width="24" height="25" viewBox="0 0 24 25" fill="none" xmlns="http://www.w3.org/2000/svg">
<path d="M19.22 9.16028C19.1238 9.22177 17.0068 10.4991 17.0309 13.1563C17.0575 16.3347 19.7194 17.3931 19.75 17.4052C19.7262 17.4808 19.3244 18.9126 18.3468 20.3914C17.502 21.6725 16.6268 22.9463 15.2456 22.9729C13.8885 22.9986 13.4511 22.1384 11.9009 22.1384C10.3497 22.1384 9.86415 22.9463 8.58086 22.9986C7.24763 23.0509 6.2326 21.6152 5.38153 20.3412C3.64171 17.7339 2.31148 12.9728 4.09767 9.75971C4.98443 8.16399 6.56942 7.15304 8.28916 7.12693C9.59888 7.10128 10.8341 8.0394 11.6352 8.0394C12.4249 8.0394 13.8402 6.94581 15.5084 7.07371C16.1623 7.12393 18.0184 7.32616 19.22 9.16028ZM14.479 5.35253C15.1876 4.46512 15.6643 3.22924 15.533 2C14.5133 2.04191 13.2799 2.70394 12.5485 3.59079C11.8935 4.37641 11.3183 5.63465 11.4745 6.8388C12.6111 6.92982 13.7711 6.2405 14.479 5.35253Z" fill="black"/>
</svg>
